<svg width="183" height="262" xmlns="http://www.w3.org/2000/svg" xmlns:xlink="http://www.w3.org/1999/xlink" xml:space="preserve" overflow="hidden"><defs><linearGradient x1="1333.11" y1="1362.52" x2="1333.11" y2="1582.52" gradientUnits="userSpaceOnUse" spreadMethod="reflect" id="fill0"><stop offset="0" stop-color="#00B0F0" stop-opacity="1"/><stop offset="0.99" stop-color="#FFC000" stop-opacity="1"/><stop offset="1" stop-color="#92D050" stop-opacity="1"/></linearGradient></defs><g transform="translate(-1242 -1342)"><g><path d="M1310.83 1438.02 1310.83 1481.63 1337.19 1481.63C1347.67 1481.63 1354.33 1480.42 1357.16 1478.01 1359.99 1475.6 1361.4 1469.89 1361.4 1460.9 1361.4 1450.59 1360.23 1444.2 1357.87 1441.73 1355.52 1439.26 1349.4 1438.02 1339.51 1438.02ZM1287.68 1418.54 1336.83 1418.54 1342.91 1418.54C1359.41 1418.54 1370.53 1421.42 1376.28 1427.17 1382.03 1432.92 1384.9 1444.01 1384.9 1460.45 1384.9 1476.77 1382.16 1487.62 1376.68 1492.98 1371.2 1498.34 1360.12 1501.02 1343.44 1501.02L1338.08 1501.11 1310.83 1501.11 1310.83 1540.52 1287.68 1540.52Z" fill="url(#fill0)" fill-rule="evenodd"/><text fill="#000000" fill-opacity="0" font-family="Arial,Arial_MSFontService,sans-serif" font-size="121.97" direction="ltr" writing-mode="lr-tb" x="1287.68" y="1525.27">P</text></g></g></svg>